<svg xmlns="http://www.w3.org/2000/svg" viewBox="0 0 48 48" fill="#58595B"><ellipse cx="24" cy="28" rx="7" ry="9"/><circle cx="24" cy="16" r="5"/><circle cx="22" cy="14" r="1.3"/><circle cx="26" cy="14" r="1.3"/><path d="M19 18c-5-3-10-3-14-1l1 2c4-2 8-1 12 1M29 18c5-3 10-3 14-1l-1 2c-4-2-8-1-12 1M18 24c-6 0-11 2-15 5l1 2c4-3 9-5 14-5M30 24c6 0 11 2 15 5l-1 2c-4-3-9-5-14-5M18 30c-5 3-9 7-11 12l2 1c2-5 5-9 10-11M30 30c5 3 9 7 11 12l-2 1c-2-5-5-9-10-11M19 21c-6-1-11 0-15 3l1 2c4-3 8-4 13-3M29 21c6-1 11 0 15 3l-1 2c-4-3-8-4-13-3" stroke="#58595B" stroke-width="1.3" fill="none"/></svg>